# xmcd
#
# Track frame offsets:
# 150
# 21166
# 40089
# 55624
# 74609
# 94744
# 114589
# 131604
# 154470
# 169860
#
# Disc length: 2441 seconds
#
#
# Revision: 0
# Processed by: cddbd v1.5.2PL0 Copyright (c) Steve Scherf et al.
# Submitted via: FreeRIP 2.942 
#
DISCID=8609870a
DTITLE=WT Feaster Band - Wish You Well
DYEAR=2010
DGENRE=R&B
TTITLE0=The Bird Has Flown
TTITLE1=Mr. Maybe
TTITLE2=Goin' Out That Way
TTITLE3=Gone
TTITLE4=Gunshy
TTITLE5=Wish You Well
TTITLE6=Cruise
TTITLE7=Break For You
TTITLE8=Freedom
TTITLE9=Down At The Station
EXTD=
EXTT0=
EXTT1=
EXTT2=
EXTT3=
EXTT4=
EXTT5=
EXTT6=
EXTT7=
EXTT8=
EXTT9=
PLAYORDER=
